<mxfile host="65bd71144e">
    <diagram id="f924llZ1JfDQYRSAbQnB" name="PÃ¡gina-1">
        <mxGraphModel dx="768" dy="628" grid="0" gridSize="10" guides="1" tooltips="1" connect="1" arrows="1" fold="1" page="1" pageScale="1" pageWidth="1169" pageHeight="827" background="#F1FAEE" math="0" shadow="0">
            <root>
                <mxCell id="0"/>
                <mxCell id="1" parent="0"/>
                <mxCell id="2" value="Pool" style="swimlane;childLayout=stackLayout;resizeParent=1;resizeParentMax=0;startSize=20;horizontal=0;horizontalStack=1;fillColor=#A8DADC;strokeColor=#457B9D;fontColor=#1D3557;sketch=1;" parent="1" vertex="1">
                    <mxGeometry x="132" y="64" width="792" height="515" as="geometry"/>
                </mxCell>
                <mxCell id="3" value="Browser" style="swimlane;startSize=20;fillColor=#A8DADC;strokeColor=#457B9D;fontColor=#1D3557;sketch=1;" parent="2" vertex="1">
                    <mxGeometry x="20" width="224" height="515" as="geometry"/>
                </mxCell>
                <mxCell id="6" value="" style="shape=actor;whiteSpace=wrap;html=1;sketch=1;fontColor=#1D3557;strokeColor=#457B9D;fillColor=#A8DADC;" vertex="1" parent="3">
                    <mxGeometry x="36" y="70" width="33" height="43" as="geometry"/>
                </mxCell>
                <mxCell id="24" value="" style="shape=actor;whiteSpace=wrap;html=1;sketch=1;fontColor=#1D3557;strokeColor=#457B9D;fillColor=#A8DADC;" vertex="1" parent="3">
                    <mxGeometry x="50" y="233.5" width="33" height="43" as="geometry"/>
                </mxCell>
                <mxCell id="4" value="API Rest" style="swimlane;startSize=20;fillColor=#A8DADC;strokeColor=#457B9D;fontColor=#1D3557;sketch=1;" parent="2" vertex="1">
                    <mxGeometry x="244" width="315" height="515" as="geometry"/>
                </mxCell>
                <UserObject label="/user" treeRoot="1" id="17">
                    <mxCell style="whiteSpace=wrap;html=1;align=center;treeFolding=1;treeMoving=1;newEdgeStyle={&quot;edgeStyle&quot;:&quot;elbowEdgeStyle&quot;,&quot;startArrow&quot;:&quot;none&quot;,&quot;endArrow&quot;:&quot;none&quot;};sketch=1;fontColor=#1D3557;strokeColor=#457B9D;fillColor=#A8DADC;" vertex="1" parent="4">
                        <mxGeometry x="96" y="47" width="98" height="46" as="geometry"/>
                    </mxCell>
                </UserObject>
                <UserObject label="/user" treeRoot="1" id="21">
                    <mxCell style="whiteSpace=wrap;html=1;align=center;treeFolding=1;treeMoving=1;newEdgeStyle={&quot;edgeStyle&quot;:&quot;elbowEdgeStyle&quot;,&quot;startArrow&quot;:&quot;none&quot;,&quot;endArrow&quot;:&quot;none&quot;};sketch=1;fontColor=#1D3557;strokeColor=#457B9D;fillColor=#A8DADC;" vertex="1" parent="4">
                        <mxGeometry x="94" y="113" width="98" height="46" as="geometry"/>
                    </mxCell>
                </UserObject>
                <UserObject label="/login" treeRoot="1" id="25">
                    <mxCell style="whiteSpace=wrap;html=1;align=center;treeFolding=1;treeMoving=1;newEdgeStyle={&quot;edgeStyle&quot;:&quot;elbowEdgeStyle&quot;,&quot;startArrow&quot;:&quot;none&quot;,&quot;endArrow&quot;:&quot;none&quot;};sketch=1;fontColor=#1D3557;strokeColor=#457B9D;fillColor=#A8DADC;" vertex="1" parent="4">
                        <mxGeometry x="96" y="232" width="98" height="46" as="geometry"/>
                    </mxCell>
                </UserObject>
                <UserObject label="/login" treeRoot="1" id="33">
                    <mxCell style="whiteSpace=wrap;html=1;align=center;treeFolding=1;treeMoving=1;newEdgeStyle={&quot;edgeStyle&quot;:&quot;elbowEdgeStyle&quot;,&quot;startArrow&quot;:&quot;none&quot;,&quot;endArrow&quot;:&quot;none&quot;};sketch=1;fontColor=#1D3557;strokeColor=#457B9D;fillColor=#A8DADC;" vertex="1" parent="4">
                        <mxGeometry x="96" y="297" width="98" height="46" as="geometry"/>
                    </mxCell>
                </UserObject>
                <UserObject label="/user" treeRoot="1" id="38">
                    <mxCell style="whiteSpace=wrap;html=1;align=center;treeFolding=1;treeMoving=1;newEdgeStyle={&quot;edgeStyle&quot;:&quot;elbowEdgeStyle&quot;,&quot;startArrow&quot;:&quot;none&quot;,&quot;endArrow&quot;:&quot;none&quot;};sketch=1;fontColor=#1D3557;strokeColor=#457B9D;fillColor=#A8DADC;" vertex="1" parent="4">
                        <mxGeometry x="96" y="362" width="98" height="46" as="geometry"/>
                    </mxCell>
                </UserObject>
                <mxCell id="5" value="Database" style="swimlane;startSize=20;fillColor=#A8DADC;strokeColor=#457B9D;fontColor=#1D3557;sketch=1;" parent="2" vertex="1">
                    <mxGeometry x="559" width="233" height="515" as="geometry"/>
                </mxCell>
                <mxCell id="16" value="" style="shape=datastore;whiteSpace=wrap;html=1;sketch=1;fontColor=#1D3557;strokeColor=#457B9D;fillColor=#A8DADC;" vertex="1" parent="5">
                    <mxGeometry x="97" y="53" width="60" height="60" as="geometry"/>
                </mxCell>
                <mxCell id="30" value="" style="shape=datastore;whiteSpace=wrap;html=1;sketch=1;fontColor=#1D3557;strokeColor=#457B9D;fillColor=#A8DADC;" vertex="1" parent="5">
                    <mxGeometry x="102" y="218" width="60" height="60" as="geometry"/>
                </mxCell>
                <mxCell id="18" value="" style="edgeStyle=orthogonalEdgeStyle;rounded=1;sketch=1;orthogonalLoop=1;jettySize=auto;html=1;fontColor=#1D3557;strokeColor=#457B9D;fillColor=#A8DADC;exitX=0.5;exitY=0;exitDx=0;exitDy=0;entryX=0;entryY=0.5;entryDx=0;entryDy=0;" edge="1" parent="2" source="6" target="17">
                    <mxGeometry relative="1" as="geometry">
                        <mxPoint x="346" y="86" as="targetPoint"/>
                        <Array as="points">
                            <mxPoint x="208" y="70"/>
                            <mxPoint x="208" y="70"/>
                        </Array>
                    </mxGeometry>
                </mxCell>
                <mxCell id="27" value="GET" style="edgeLabel;html=1;align=center;verticalAlign=middle;resizable=0;points=[];fontColor=#1D3557;labelBackgroundColor=#FFFFFF;" vertex="1" connectable="0" parent="18">
                    <mxGeometry x="0.3084" y="-1" relative="1" as="geometry">
                        <mxPoint x="-49" y="-13" as="offset"/>
                    </mxGeometry>
                </mxCell>
                <mxCell id="19" value="" style="edgeStyle=orthogonalEdgeStyle;rounded=1;sketch=1;orthogonalLoop=1;jettySize=auto;html=1;fontColor=#1D3557;strokeColor=#457B9D;fillColor=#A8DADC;" edge="1" parent="2" source="17" target="16">
                    <mxGeometry relative="1" as="geometry"/>
                </mxCell>
                <mxCell id="22" style="edgeStyle=orthogonalEdgeStyle;rounded=1;sketch=1;orthogonalLoop=1;jettySize=auto;html=1;entryX=1;entryY=0.5;entryDx=0;entryDy=0;fontColor=#1D3557;strokeColor=#457B9D;fillColor=#A8DADC;exitX=0.5;exitY=1;exitDx=0;exitDy=0;" edge="1" parent="2" source="16" target="21">
                    <mxGeometry relative="1" as="geometry"/>
                </mxCell>
                <mxCell id="23" style="edgeStyle=orthogonalEdgeStyle;rounded=1;sketch=1;orthogonalLoop=1;jettySize=auto;html=1;entryX=0.5;entryY=1;entryDx=0;entryDy=0;fontColor=#1D3557;strokeColor=#457B9D;fillColor=#A8DADC;" edge="1" parent="2" source="21" target="6">
                    <mxGeometry relative="1" as="geometry"/>
                </mxCell>
                <mxCell id="28" value="user's JSON" style="edgeLabel;html=1;align=center;verticalAlign=middle;resizable=0;points=[];fontColor=#1D3557;labelBackgroundColor=#FFFFFF;" vertex="1" connectable="0" parent="23">
                    <mxGeometry x="-0.3726" y="-2" relative="1" as="geometry">
                        <mxPoint x="-50" y="-10" as="offset"/>
                    </mxGeometry>
                </mxCell>
                <mxCell id="26" value="" style="edgeStyle=orthogonalEdgeStyle;rounded=1;sketch=1;orthogonalLoop=1;jettySize=auto;html=1;fontColor=#1D3557;strokeColor=#457B9D;fillColor=#A8DADC;" edge="1" parent="2" source="24" target="25">
                    <mxGeometry relative="1" as="geometry"/>
                </mxCell>
                <mxCell id="29" value="POST email, password" style="edgeLabel;html=1;align=center;verticalAlign=middle;resizable=0;points=[];fontColor=#1D3557;labelBackgroundColor=#FFFFFF;" vertex="1" connectable="0" parent="26">
                    <mxGeometry x="-0.3858" y="1" relative="1" as="geometry">
                        <mxPoint x="-2" y="-7" as="offset"/>
                    </mxGeometry>
                </mxCell>
                <mxCell id="31" style="edgeStyle=orthogonalEdgeStyle;rounded=1;sketch=1;orthogonalLoop=1;jettySize=auto;html=1;entryX=0;entryY=0.5;entryDx=0;entryDy=0;fontColor=#1D3557;strokeColor=#457B9D;fillColor=#A8DADC;" edge="1" parent="2" source="25" target="30">
                    <mxGeometry relative="1" as="geometry"/>
                </mxCell>
                <mxCell id="32" style="edgeStyle=orthogonalEdgeStyle;rounded=1;sketch=1;orthogonalLoop=1;jettySize=auto;html=1;fontColor=#1D3557;strokeColor=#457B9D;fillColor=#A8DADC;entryX=1;entryY=0.5;entryDx=0;entryDy=0;" edge="1" parent="2" source="30" target="33">
                    <mxGeometry relative="1" as="geometry">
                        <mxPoint x="700.3411102294922" y="356.1770477294922" as="targetPoint"/>
                        <Array as="points">
                            <mxPoint x="691" y="320"/>
                        </Array>
                    </mxGeometry>
                </mxCell>
                <mxCell id="34" style="edgeStyle=orthogonalEdgeStyle;rounded=1;sketch=1;orthogonalLoop=1;jettySize=auto;html=1;entryX=0.5;entryY=1;entryDx=0;entryDy=0;fontColor=#1D3557;strokeColor=#457B9D;fillColor=#A8DADC;" edge="1" parent="2" source="33" target="24">
                    <mxGeometry relative="1" as="geometry"/>
                </mxCell>
                <mxCell id="37" value="JWT TOKEN&lt;br&gt;" style="edgeLabel;html=1;align=center;verticalAlign=middle;resizable=0;points=[];fontColor=#1D3557;labelBackgroundColor=#ffffff;" vertex="1" connectable="0" parent="34">
                    <mxGeometry x="-0.027" y="-4" relative="1" as="geometry">
                        <mxPoint x="-16" y="-6" as="offset"/>
                    </mxGeometry>
                </mxCell>
                <mxCell id="39" style="edgeStyle=orthogonalEdgeStyle;rounded=1;sketch=1;orthogonalLoop=1;jettySize=auto;html=1;entryX=0;entryY=0.5;entryDx=0;entryDy=0;fontColor=#1D3557;strokeColor=#457B9D;fillColor=#A8DADC;" edge="1" parent="2" source="24" target="38">
                    <mxGeometry relative="1" as="geometry">
                        <Array as="points">
                            <mxPoint x="45" y="255"/>
                            <mxPoint x="45" y="385"/>
                        </Array>
                    </mxGeometry>
                </mxCell>
                <mxCell id="40" value="GET + header Authorization + JWT TOKEN" style="edgeLabel;html=1;align=center;verticalAlign=middle;resizable=0;points=[];fontColor=#1D3557;labelBackgroundColor=#FFFFFF;" vertex="1" connectable="0" parent="39">
                    <mxGeometry x="0.2422" y="3" relative="1" as="geometry">
                        <mxPoint y="-11" as="offset"/>
                    </mxGeometry>
                </mxCell>
                <mxCell id="41" style="edgeStyle=orthogonalEdgeStyle;rounded=1;sketch=1;orthogonalLoop=1;jettySize=auto;html=1;entryX=1;entryY=0.5;entryDx=0;entryDy=0;fontColor=#1D3557;strokeColor=#457B9D;fillColor=#A8DADC;" edge="1" parent="2" source="38" target="30">
                    <mxGeometry relative="1" as="geometry"/>
                </mxCell>
                <mxCell id="42" style="edgeStyle=orthogonalEdgeStyle;rounded=1;sketch=1;orthogonalLoop=1;jettySize=auto;html=1;entryX=0.465;entryY=0.353;entryDx=0;entryDy=0;entryPerimeter=0;fontColor=#1D3557;strokeColor=#457B9D;fillColor=#A8DADC;" edge="1" parent="2" source="38" target="24">
                    <mxGeometry relative="1" as="geometry">
                        <Array as="points">
                            <mxPoint x="389" y="437"/>
                            <mxPoint x="33" y="437"/>
                            <mxPoint x="33" y="249"/>
                        </Array>
                    </mxGeometry>
                </mxCell>
            </root>
        </mxGraphModel>
    </diagram>
</mxfile>
